<?xml version="1.0" encoding="UTF-8" standalone="no"?>
<!DOCTYPE svg PUBLIC "-//W3C//DTD SVG 1.1//EN" "http://www.w3.org/Graphics/SVG/1.1/DTD/svg11.dtd">
<svg version="1.1" xmlns="http://www.w3.org/2000/svg" xmlns:xlink="http://www.w3.org/1999/xlink" preserveAspectRatio="xMidYMid meet" viewBox="0 0 640 640" width="640" height="640"><defs><path d="M370 264.6C370 290.68 370 349.32 370 375.4C370 386.22 361.22 395 350.4 395C324.32 395 265.68 395 239.6 395C228.78 395 220 386.22 220 375.4C220 349.32 220 290.68 220 264.6C220 253.78 255.31 296.02 266.13 296.02C292.21 296.02 324.32 245 350.4 245C361.22 245 370 253.78 370 264.6Z" id="c8S8QIWdns"></path><path d="M370 370C342.4 370 320 347.6 320 320C320 292.4 342.4 270 370 270C397.6 270 420 292.4 420 320C420 347.6 397.6 370 370 370Z" id="b1zDvONtRI"></path></defs><g><g><g><use xlink:href="#c8S8QIWdns" opacity="1" fill="#fd7e14" fill-opacity="1"></use><g><use xlink:href="#c8S8QIWdns" opacity="1" fill-opacity="0" stroke="#000000" stroke-width="1" stroke-opacity="0"></use></g></g><g><use xlink:href="#b1zDvONtRI" opacity="1" fill="#8b62e3" fill-opacity="1"></use><g><use xlink:href="#b1zDvONtRI" opacity="1" fill-opacity="0" stroke="#000000" stroke-width="1" stroke-opacity="0"></use></g></g></g></g></svg>